<svg height="512pt" viewBox="0 0 512 512.0001" width="512pt" xmlns="http://www.w3.org/2000/svg"><path d="m420.992188 75.917969c0-8.277344-6.714844-14.984375-15-14.984375-8.285157 0-15 6.707031-15 14.984375 0 8.273437 6.714843 14.980469 15 14.980469 8.285156 0 15-6.707032 15-14.980469zm0 0"/><path d="m360.992188 75.917969c0-8.277344-6.714844-14.984375-15-14.984375-8.28125 0-15 6.707031-15 14.984375 0 8.273437 6.71875 14.980469 15 14.980469 8.285156 0 15-6.707032 15-14.980469zm0 0"/><path d="m300.996094 75.917969c0-8.277344-6.71875-14.984375-15-14.984375-8.285156 0-15 6.707031-15 14.984375 0 8.273437 6.714844 14.980469 15 14.980469 8.28125 0 15-6.707032 15-14.980469zm0 0"/><path d="m77.296875 270.703125h328.644531c8.285156 0 15-6.707031 15-14.984375v-59.882812c0-8.277344-6.714844-14.984376-15-14.984376h-328.644531c-8.285156 0-15 6.707032-15 14.984376v59.882812c0 8.277344 6.714844 14.984375 15 14.984375zm15-59.886719h298.648437v29.921875h-298.648437zm0 0"/><path d="m496.992188 421.199219h-53.714844l-6.210938-6.214844.039063-16.855469 6.222656-6.195312s52.609375.058594 52.609375.058594c8.273438 0 15-6.703126 15-14.984376 0-22.429687-11.371094-42.628906-29.4375-56.605468.730469-2.835938.492188 14.878906.492188-265.464844 0-30.292969-24.671876-54.9375-55-54.9375h-371.996094c-30.324219 0-54.996094 24.644531-54.996094 54.9375v370.597656c0 30.292969 24.671875 54.941406 55 54.941406h23.09375c45.914062 53.976563 143.28125 34.824219 159.253906-28.472656l98.351563-.390625c14.433593 58.699219 98.78125 80.183594 148.820312 39.199219 17.5-14.332031 27.257813-33.679688 27.46875-54.476562.085938-8.332032-6.660156-15.136719-14.996093-15.136719zm-441.996094-391.230469h371.996094c13.785156 0 25 11.199219 25 24.96875v65.929688h-421.992188v-65.929688c0-13.769531 11.214844-24.96875 24.996094-24.96875zm.003906 420.539062c-13.785156 0-25-11.203124-25-24.972656v-274.699218h421.992188v154.371093c-50.660157-15.691406-105.929688 10.5625-117.28125 55.398438h-96.273438c-8.800781-34.761719-44.855469-59.933594-86.96875-59.933594-49.214844 0-89.257812 34.242187-89.257812 76.335937 0 8.101563 6.507812 14.949219 15.015624 14.984376l52.597657-.058594 6.222656 6.195312.035156 16.855469-6.207031 6.214844h-53.71875c-8.332031 0-15.082031 6.796875-14.996094 15.136719.046875 4.816406.632813 9.550781 1.683594 14.171874zm367.785156 31.515626c-32.058594 0-58.53125-20.515626-59.019531-45.734376-.15625-8.167968-6.828125-14.695312-14.996094-14.695312-.097656 0-124.363281.492188-124.464843.492188-8.09375.035156-14.699219 6.472656-14.933594 14.554687-.722656 25.023437-27.191406 45.382813-59.007813 45.382813-25.621093 0-47.59375-12.910157-55.785156-30.855469h41.515625c3.984375 0 7.804688-1.585938 10.617188-4.402344l15-15.015625c2.816406-2.820312 4.390624-6.636719 4.382812-10.617188l-.066406-29.273437c-.007813-3.96875-1.59375-7.773437-4.410156-10.578125l-15.015626-14.949219c-2.71875-2.707031-6.480468-4.371093-10.605468-4.371093l-40.601563.042968c7.984375-18.226562 30.105469-31.367187 56.070313-31.367187 31.816406 0 58.289062 20.359375 59.011718 45.382812.230469 8.105469 6.875 14.554688 14.992188 14.554688h122.210938c8.117187 0 14.757812-6.449219 14.992187-14.554688.722656-25.023437 27.195313-45.382812 59.011719-45.382812 25.964844 0 48.085937 13.136719 56.070312 31.367187l-40.605468-.042968c-4.113282 0-7.878907 1.65625-10.605469 4.371093l-15.015625 14.949219c-2.8125 2.804688-4.398438 6.609375-4.410156 10.578125l-.0625 29.269531c-.011719 3.980469 1.566406 7.800782 4.378906 10.617188l15 15.019531c2.8125 2.816406 6.632812 4.398437 10.617187 4.398437h41.519531c-8.195312 17.949219-30.167968 30.859376-55.785156 30.859376zm0 0"/></svg>