<svg id="_x31__px" height="512" viewBox="0 0 24 24" width="512" xmlns="http://www.w3.org/2000/svg"><path d="m23.5 17h-15c-.276 0-.5-.224-.5-.5s.224-.5.5-.5h15c.276 0 .5.224.5.5s-.224.5-.5.5z"/><path d="m19.5 24h-15c-2.481 0-4.5-2.019-4.5-4.5v-17c0-1.378 1.121-2.5 2.5-2.5h11c1.379 0 2.5 1.122 2.5 2.5v9.5h5.5c1.379 0 2.5 1.122 2.5 2.5v5c0 2.481-2.019 4.5-4.5 4.5zm-12.175-1h12.175c1.93 0 3.5-1.57 3.5-3.5v-5c0-.827-.673-1.5-1.5-1.5h-11c-.827 0-1.5.673-1.5 1.5v5c0 1.412-.653 2.674-1.675 3.5zm-4.825-22c-.827 0-1.5.673-1.5 1.5v17c0 1.93 1.57 3.5 3.5 3.5s3.5-1.57 3.5-3.5v-5c0-1.378 1.121-2.5 2.5-2.5h4.5v-9.5c0-.827-.673-1.5-1.5-1.5z"/><path d="m8 7c-1.103 0-2-.897-2-2s.897-2 2-2 2 .897 2 2-.897 2-2 2zm0-3c-.552 0-1 .449-1 1s.448 1 1 1 1-.449 1-1-.448-1-1-1z"/></svg>